<svg width="336" height="304" viewBox="0 0 336 304" fill="none" xmlns="http://www.w3.org/2000/svg">

<style type="text/css">@import url(style_ilustracion.css);</style>

<g id="ilustracion muneco" clip-path="url(#clip0_1_2)">
<g id="ilustracion M">
<g id="vegetacion">
<path id="Vector" d="M31.6728 244.111C29.8188 242.592 28.0478 240.963 26.3876 239.223C25.6128 238.422 24.8657 237.566 24.1462 236.71C23.7311 236.213 23.3161 235.716 22.9287 235.219C22.652 234.86 22.3752 234.501 22.1262 234.142C21.6835 233.7 21.6835 233.148 22.1539 232.54C22.4859 232.678 23.0117 232.347 22.735 231.96C21.047 229.696 19.8018 227.211 18.9994 224.504C18.8333 224.67 18.6673 224.836 18.5013 225.001C19.4144 225.25 20.0785 225.719 20.5766 226.493C20.8533 226.934 21.5728 226.548 21.2961 226.078C17.1731 218.954 13.7972 211.443 11.2514 203.628C11.0301 203.766 10.781 203.904 10.5596 204.042C22.1539 215.419 27.4114 231.242 37.1793 243.973C37.5114 244.387 38.2308 243.973 37.8988 243.558C28.1032 230.773 22.7903 214.895 11.1407 203.462C10.864 203.186 10.3106 203.462 10.449 203.876C13.0224 211.774 16.3983 219.341 20.5766 226.52C20.8257 226.382 21.047 226.244 21.2961 226.106C20.6596 225.14 19.8295 224.504 18.7227 224.228C18.4183 224.145 18.1139 224.422 18.2246 224.725C19.0547 227.487 20.3276 230.055 22.0432 232.375C22.2369 232.181 22.4306 231.988 22.6243 231.795C21.8495 231.436 20.9917 231.795 20.798 232.706C20.549 234.004 22.1262 235.44 22.8457 236.351C25.3084 239.416 28.1032 242.205 31.147 244.69C31.5067 245.022 32.0878 244.442 31.6728 244.111Z" fill="#E8E8E8"/>
<path id="Vector_2" d="M28.7672 226.852C23.6757 219.258 19.5527 211.111 16.5089 202.496C16.4259 202.661 16.3152 202.827 16.2322 202.993C17.173 202.772 17.9755 203.131 18.5012 203.959C18.7779 204.429 19.442 204.015 19.2207 203.545C14.9316 194.294 10.5596 184.657 10.864 174.246C10.6149 174.329 10.3382 174.384 10.0892 174.467C17.4774 189.655 24.5059 205.036 31.147 220.556C31.3407 220.997 32.0601 220.666 31.8941 220.224C30.7872 216.91 29.7081 213.569 28.6012 210.255C28.0755 208.626 27.522 207.025 26.9963 205.395C26.6366 204.318 25.8618 201.971 27.4114 201.391C27.2453 201.336 27.107 201.253 26.9409 201.198C28.9333 205.091 30.8979 208.985 32.8902 212.879C33.1393 213.348 33.8588 212.934 33.6097 212.465C31.4514 208.24 30.4552 203.573 30.6489 198.823C30.3722 198.851 30.0955 198.906 29.8464 198.933C35.602 213.21 42.2708 227.128 49.7697 240.576C50.0187 241.045 50.7382 240.631 50.4891 240.162C43.0179 226.769 36.3768 212.934 30.6489 198.713C30.4829 198.298 29.8464 198.326 29.8464 198.823C29.6527 203.711 30.7042 208.488 32.9179 212.879C33.167 212.741 33.3883 212.603 33.6374 212.465C31.645 208.571 29.6804 204.677 27.6881 200.784C27.6051 200.646 27.3837 200.535 27.2177 200.59C24.4505 201.612 26.2215 205.561 26.8303 207.411C28.2692 211.747 29.6804 216.11 31.1193 220.445C31.3683 220.335 31.6174 220.224 31.8664 220.114C25.2253 204.594 18.1968 189.213 10.8086 174.025C10.6149 173.639 10.0338 173.86 10.0338 174.246C9.70181 184.795 14.1568 194.598 18.5012 203.959C18.7503 203.821 18.9716 203.683 19.2207 203.545C18.5012 202.413 17.339 201.916 16.0108 202.192C15.7894 202.247 15.6511 202.496 15.7341 202.689C18.8056 211.36 22.9563 219.589 28.0755 227.238C28.3522 227.708 29.0716 227.293 28.7672 226.852Z" fill="#E8E8E8"/>
<path id="Vector_3" d="M80.8445 297.986C79.1285 296.495 77.5795 294.838 76.3065 292.933C75.7255 292.077 75.1995 291.165 74.7015 290.254C74.4525 289.785 74.2315 289.315 74.0375 288.846C73.8715 288.459 73.7055 288.1 73.5665 287.714C73.3175 287.299 73.4285 286.913 73.8995 286.554C74.1485 286.443 74.3975 286.333 74.6465 286.222C71.6025 281.749 69.6935 276.668 69.0565 271.311C68.8075 271.421 68.5865 271.504 68.3375 271.615C68.8355 272.25 69.3335 272.885 69.8595 273.548C70.1635 273.934 70.7445 273.437 70.5235 273.05C65.7085 264.462 63.1345 254.797 63.0795 244.967C62.8305 245.077 62.6095 245.16 62.3605 245.27C64.2415 246.789 65.6805 248.667 66.5665 250.904C66.8155 250.793 67.0645 250.683 67.3135 250.572C65.1545 246.016 64.7125 240.88 65.9855 236.02C65.7085 236.02 65.4595 236.02 65.1825 236.02C70.8555 252.229 76.5005 268.411 82.1725 284.621C82.3385 285.118 83.1415 284.897 82.9755 284.4C80.1255 276.088 78.7135 267.362 78.7965 258.553C78.5475 258.663 78.3265 258.746 78.0775 258.857C79.7655 260.375 80.8165 262.281 81.2045 264.518C81.2875 264.987 82.0345 264.877 82.0065 264.407C81.9235 262.723 81.8135 261.011 81.7305 259.326C81.5085 259.437 81.3145 259.575 81.0935 259.685C82.5605 260.624 82.8365 263.109 83.3075 264.656C83.8055 266.313 84.3035 267.969 84.8295 269.654C85.8535 273.078 86.9045 276.475 87.9285 279.899C90.0035 286.72 92.0795 293.568 94.1545 300.389C94.3205 300.886 95.1225 300.692 94.9565 300.168C92.7155 292.822 90.5015 285.449 88.2605 278.104C87.1815 274.514 86.0745 270.924 84.9955 267.334C84.4415 265.484 83.8885 263.662 83.3345 261.811C82.9755 260.679 82.5605 259.657 81.5365 258.995C81.2875 258.829 80.8995 259.05 80.8995 259.354C80.9825 261.038 81.0935 262.75 81.1765 264.435C81.4535 264.407 81.7305 264.352 81.9795 264.324C81.5915 261.949 80.4295 259.878 78.6305 258.277C78.3545 258.028 77.9395 258.194 77.9115 258.58C77.8285 267.445 79.2395 276.254 82.1175 284.648C82.3945 284.566 82.6435 284.51 82.9195 284.428C77.2475 268.218 71.6025 252.036 65.9295 235.826C65.7915 235.467 65.2375 235.412 65.1275 235.826C63.7995 240.935 64.2975 246.264 66.5385 251.014C66.7325 251.428 67.4795 251.125 67.2855 250.683C66.3445 248.308 64.8785 246.292 62.8585 244.69C62.5815 244.47 62.1385 244.608 62.1385 244.994C62.1945 254.963 64.7955 264.794 69.6935 273.492C69.9145 273.327 70.1355 273.161 70.3575 272.995C69.8595 272.36 69.3605 271.725 68.8355 271.062C68.6135 270.786 68.0885 271.007 68.1155 271.366C68.7525 276.889 70.6895 282.108 73.8165 286.692C74.0925 287.079 74.6465 286.83 74.5635 286.361C74.4245 285.587 73.5115 285.311 72.8755 285.781C71.7135 286.609 72.8475 288.57 73.2625 289.509C74.8395 293.016 77.1915 296.081 80.0975 298.594C80.6785 298.897 81.2595 298.318 80.8445 297.986Z" fill="#E8E8E8"/>
<path id="Vector_4" d="M245.793 259.354C246.042 257.531 246.401 255.764 246.927 253.997C247.176 253.168 247.426 252.34 247.758 251.511C247.951 251.014 248.477 250.186 249.197 250.379C249.556 250.49 249.722 251.732 249.75 251.981C249.805 252.423 250.414 252.561 250.552 252.091C251.853 247.866 253.347 243.227 257.332 240.769C257.111 240.659 256.916 240.521 256.694 240.41C256.694 241.101 256.668 241.819 256.668 242.509C256.668 242.896 257.249 243.089 257.443 242.73C259.905 237.621 262.588 232.264 267.569 229.171C267.376 229.006 267.155 228.868 266.961 228.702C264.471 235.136 261.565 241.404 258.272 247.48C258.05 247.866 258.605 248.363 258.937 247.977C260.791 245.768 262.672 243.558 265.108 241.957C264.914 241.763 264.72 241.57 264.526 241.377C261.455 247.839 258.107 254.135 254.426 260.265C254.15 260.734 254.869 261.149 255.146 260.679C258.798 254.549 262.174 248.253 265.246 241.791C265.412 241.46 265.051 240.963 264.664 241.211C262.173 242.868 260.237 245.105 258.328 247.369C258.549 247.535 258.77 247.701 258.991 247.866C262.312 241.736 265.245 235.412 267.763 228.895C267.901 228.564 267.432 228.26 267.155 228.426C262.036 231.601 259.269 237.041 256.723 242.288C256.972 242.371 257.249 242.426 257.498 242.509C257.498 241.819 257.526 241.101 257.526 240.41C257.526 240.107 257.165 239.886 256.888 240.051C252.738 242.619 251.106 247.424 249.75 251.87C250.027 251.898 250.303 251.953 250.552 251.981C250.414 250.572 249.14 248.17 247.591 249.965C246.816 250.876 246.512 252.367 246.18 253.5C245.627 255.322 245.24 257.2 244.963 259.105C244.935 259.658 245.71 259.878 245.793 259.354Z" fill="#E8E8E8"/>
</g>
<g id="monticulos">
<path id="Vector_5" d="M-39.3869 249.661C-36.4537 248.225 -35.2085 244.414 -32.0263 243.42C-28.7611 242.399 -25.1362 244.414 -22.1477 242.205C-20.8472 241.239 -19.8787 239.637 -18.3014 239.057C-16.9178 238.56 -15.4789 239.112 -14.1507 239.527C-13.0162 239.886 -11.8817 240.217 -10.7472 240.576C-6.1814 241.984 -1.6433 243.365 2.9224 244.773C8.0969 246.347 13.2438 247.949 18.4183 249.523C18.9164 249.689 19.1377 248.888 18.6396 248.722C9.1761 245.823 -0.259801 242.923 -9.7233 240.024C-11.937 239.361 -14.2337 238.339 -16.5304 238.063C-18.1354 237.87 -19.4082 238.505 -20.5428 239.554C-22.12 241.018 -23.3099 242.371 -25.6066 242.481C-27.5159 242.592 -29.3976 242.095 -31.3069 242.399C-35.2362 243.006 -36.4537 247.286 -39.7743 248.916C-40.2723 249.192 -39.8573 249.91 -39.3869 249.661Z" fill="#E8E8E8"/>
<path id="Vector_6" d="M10.3382 246.182C12.3029 246.679 13.8525 244.718 15.6234 244.138C18.0031 243.337 20.5489 243.669 22.7072 244.911C23.1777 245.187 23.5927 244.469 23.1223 244.193C21.296 243.116 19.2207 242.675 17.1177 242.951C16.2045 243.061 15.3467 243.31 14.5166 243.669C13.3267 244.193 11.9432 245.712 10.5596 245.381C10.0338 245.243 9.8125 246.044 10.3382 246.182Z" fill="#E8E8E8"/>
<path id="Vector_7" d="M-25.911 280.23C-16.3368 275.619 -6.2368 270.924 4.6933 272.029C9.8678 272.553 14.8763 274.045 20.0231 274.707C22.6242 275.039 25.253 275.177 27.8541 274.873C30.2892 274.569 32.5859 273.686 34.9656 273.161C38.0371 272.471 40.8319 273.189 43.7927 274.017C46.2278 274.68 48.6352 275.232 51.1532 274.652C51.679 274.542 51.4576 273.741 50.9319 273.851C45.8957 275.039 41.1639 271.421 36.0724 272.139C33.5544 272.498 31.2023 273.492 28.7119 273.934C26.0831 274.376 23.399 274.321 20.7426 273.989C15.5127 273.382 10.4212 271.835 5.1637 271.256C-0.0107999 270.676 -5.13 271.338 -10.0831 272.774C-15.728 274.431 -21.0686 276.972 -26.3261 279.512C-26.8242 279.733 -26.3814 280.451 -25.911 280.23Z" fill="#E8E8E8"/>
<path id="Vector_8" d="M30.2616 303.122C33.4991 301.742 36.6813 300.223 39.7528 298.511C41.3577 297.6 42.935 296.661 44.5122 295.667C45.9235 294.755 47.3347 293.457 48.8843 292.795C50.6276 292.077 53.2563 293.43 54.9996 293.955C56.8536 294.534 58.7076 295.087 60.5335 295.667C64.3245 296.826 68.1155 297.986 71.8795 299.146C72.3775 299.312 72.5985 298.511 72.1005 298.345C68.0605 297.103 63.9925 295.86 59.9525 294.617C58.0158 294.01 56.0788 293.43 54.1418 292.822C52.6476 292.353 50.7659 291.386 49.1887 291.773C47.7221 292.132 46.3939 293.402 45.1487 294.231C43.5437 295.28 41.8835 296.302 40.2232 297.268C36.875 299.174 33.4161 300.886 29.8465 302.377C29.3484 302.598 29.7912 303.316 30.2616 303.122Z" fill="#E8E8E8"/>
<path id="Vector_9" d="M64.6845 303.979C66.7875 302.929 68.8905 301.852 70.9935 300.803C72.9305 299.809 75.0055 298.483 77.2195 298.29C79.4605 298.069 81.2045 299.533 83.1415 300.389C84.7735 301.107 86.5445 301.521 88.3155 301.631C92.4665 301.852 96.3405 299.781 100.464 300.002C103.757 300.195 107.076 302.902 110.314 301.19C110.784 300.941 110.37 300.223 109.9 300.472C107.88 301.549 105.694 300.499 103.701 299.864C101.986 299.312 100.325 299.063 98.5265 299.257C94.2645 299.698 90.3635 301.493 85.9915 300.472C82.3665 299.643 79.5995 296.633 75.6975 297.765C73.8985 298.29 72.2115 299.284 70.5505 300.113C68.4475 301.162 66.3445 302.239 64.2415 303.288C63.7995 303.509 64.2145 304.227 64.6845 303.979Z" fill="#E8E8E8"/>
<path id="Vector_10" d="M51.9004 236.047C51.5406 230.856 60.9765 233.838 63.6055 234.335C67.9215 235.136 72.2115 235.937 76.5275 236.738C85.1335 238.339 93.7665 239.941 102.372 241.543C102.898 241.653 103.12 240.852 102.594 240.742C92.7155 238.892 82.8645 237.069 72.9855 235.219C68.1435 234.308 63.3005 233.396 58.4584 232.513C56.7152 232.181 54.6952 231.822 53.0626 232.734C51.8173 233.396 50.9872 234.611 51.0979 236.047C51.0979 236.572 51.9557 236.572 51.9004 236.047Z" fill="#E8E8E8"/>
<path id="Vector_11" d="M96.6445 240.631C99.5225 240.935 101.293 238.201 103.534 236.876C105.444 235.771 107.105 236.627 109.07 237.014C111.256 237.456 113.496 237.511 115.71 237.235C116.235 237.179 116.235 236.351 115.71 236.406C113.219 236.71 110.729 236.6 108.294 235.992C106.827 235.605 105.499 235.136 104.033 235.716C101.431 236.71 99.6605 240.134 96.6445 239.803C96.1195 239.748 96.1195 240.576 96.6445 240.631Z" fill="#E8E8E8"/>
<path id="Vector_12" d="M149.414 293.734C156.055 291.414 162.752 289.094 169.614 287.437C176.781 285.725 184.003 285.035 191.364 285.256C198.641 285.477 205.863 286.305 213.113 286.968C220.391 287.658 227.668 288.321 234.946 289.012C243.303 289.785 251.686 290.558 260.043 291.359C260.568 291.414 260.568 290.586 260.043 290.53C245.128 289.15 230.214 287.769 215.272 286.361C200.91 285.035 186.466 283.074 172.16 286.029C164.301 287.658 156.719 290.309 149.165 292.933C148.695 293.098 148.916 293.899 149.414 293.734Z" fill="#E8E8E8"/>
<path id="Vector_13" d="M178.663 266.561C183.616 265.512 188.264 263.441 192.941 261.563C197.949 259.575 203.012 258.194 208.38 257.725C213.804 257.255 219.255 257.531 224.651 257.863C230.075 258.194 235.498 258.581 240.949 258.967C247.286 259.437 253.651 259.961 259.987 260.514C260.513 260.569 260.513 259.74 259.987 259.685C248.753 258.691 237.519 257.835 226.257 257.117C215.548 256.427 205.005 256.151 194.794 259.934C189.37 261.95 184.113 264.518 178.413 265.733C177.942 265.871 178.137 266.672 178.663 266.561Z" fill="#E8E8E8"/>
<path id="Vector_14" d="M242.444 234.722C246.401 231.712 250.58 228.757 255.007 226.493C257.166 225.388 259.49 224.504 261.925 224.311C264.554 224.09 267.182 224.615 269.755 224.946C274.985 225.581 280.243 225.968 285.5 226.299C288.987 226.52 293.415 227.017 295.878 223.98C296.21 223.565 295.629 222.986 295.297 223.4C292.502 226.852 286.608 225.554 282.789 225.305C277.532 224.946 272.329 224.449 267.099 223.786C264.857 223.51 262.645 223.289 260.403 223.704C258.19 224.09 256.114 224.974 254.15 226.023C249.888 228.287 245.847 231.104 242.001 234.031C241.614 234.335 242.029 235.053 242.444 234.722Z" fill="#E8E8E8"/>
<path id="Vector_15" d="M90.1145 230.165C94.0435 227.211 98.0005 224.283 101.93 221.329C105.694 218.512 109.208 215.557 114.133 215.309C118.782 215.088 123.542 215.613 128.163 215.999C133.144 216.413 138.097 216.966 143.022 217.656C147.173 218.236 152.126 219.782 156.055 217.628C156.526 217.38 156.111 216.662 155.64 216.91C153.62 218.015 151.379 218.015 149.138 217.739C146.73 217.435 144.323 217.021 141.915 216.689C137.267 216.054 132.59 215.53 127.886 215.143C123.265 214.756 118.478 214.204 113.857 214.48C109.568 214.729 106.386 216.938 103.037 219.451C98.5815 222.765 94.1545 226.106 89.6995 229.42C89.2845 229.779 89.6995 230.497 90.1145 230.165Z" fill="#E8E8E8"/>
<path id="Vector_16" d="M52.4539 212.741C54.6122 211.581 56.7983 210.421 59.178 209.786C61.6965 209.123 64.1865 209.344 66.7045 209.676C71.7135 210.338 76.7215 211.001 81.7025 211.664C82.2285 211.747 82.2285 210.918 81.7025 210.835C76.3615 210.117 70.9935 209.344 65.6535 208.709C63.1905 208.405 60.8385 208.405 58.4585 209.096C56.1895 209.758 54.0865 210.891 52.0112 211.995C51.5407 212.299 51.9835 212.989 52.4539 212.741Z" fill="#E8E8E8"/>
</g>
<g id="nubes">
<path id="Vector_17" d="M220.777 25.4328C222.77 23.7484 225.564 24.0797 227.75 25.1567C229.411 25.9575 230.767 27.5868 232.704 27.6696C234.502 27.7248 235.996 26.5098 237.518 25.709C238.542 25.1843 239.594 24.8253 240.756 25.0738C242.001 25.3224 243.081 26.0403 244.216 26.5374C247.951 28.1667 250.441 25.9023 253.595 24.1073C254.481 23.6103 255.422 23.1685 256.445 23.0856C257.746 22.9752 258.908 23.5551 260.07 24.0521C261.897 24.8253 263.28 25.1291 265.134 24.3835C267.043 23.6379 268.593 23.7484 270.502 24.4387C271.72 24.8805 272.882 25.4328 274.155 25.709C276.064 26.1508 278.113 26.0403 279.552 24.5768C279.939 24.1902 279.329 23.6103 278.97 23.9969C277.116 25.8747 274.294 24.991 272.164 24.1626C270.005 23.3341 267.791 22.4505 265.494 23.3065C264.055 23.8588 263.086 24.2454 261.537 23.7207C260.485 23.3618 259.517 22.7819 258.438 22.4781C256.805 21.981 255.283 22.2572 253.789 23.0028C252.073 23.8588 250.579 25.2119 248.78 25.9299C246.401 26.8688 244.547 25.6261 242.388 24.7149C240.811 24.0521 239.317 23.9417 237.74 24.632C235.83 25.4881 233.976 27.3658 231.735 26.565C230.545 26.1508 229.605 25.1843 228.526 24.5768C227.613 24.0797 226.616 23.7207 225.592 23.5274C223.627 23.1685 221.718 23.4998 220.168 24.7977C219.781 25.2119 220.39 25.7918 220.777 25.4328Z" fill="#E8E8E8"/>
<path id="Vector_18" d="M236.274 47.3034C237.575 44.9561 240.646 46.0883 242.555 46.8615C244.465 47.6347 246.18 48.1042 248.2 47.4138C249.861 46.8339 251.354 45.7293 253.069 45.3427C255.45 44.7905 256.806 46.8063 258.964 47.2758C262.34 48.0213 265.744 44.2658 268.926 45.8398C269.812 46.2816 270.42 46.8615 271.472 46.7787C272.44 46.7235 273.326 46.254 274.267 46.0331C276.895 45.4256 279.635 45.895 281.987 47.1929C282.457 47.4414 282.872 46.7235 282.402 46.4749C280.908 45.6465 279.303 45.1494 277.615 44.9838C276.757 44.9009 275.872 44.9285 275.014 45.0666C273.99 45.2047 273.049 45.6465 272.053 45.8398C270.697 46.0883 270.116 45.4256 269.009 44.9561C268.456 44.7352 267.847 44.6248 267.266 44.6524C265.882 44.7076 264.553 45.2875 263.28 45.757C261.648 46.3645 259.905 46.9444 258.245 46.1159C256.834 45.4256 255.727 44.3762 254.067 44.3762C250.635 44.4039 248.228 47.69 244.603 46.6959C241.919 45.9503 237.602 43.3269 235.61 46.8615C235.306 47.3586 236.025 47.7728 236.274 47.3034Z" fill="#E8E8E8"/>
<path id="Vector_19" d="M209.433 80.3577C211.398 78.8113 213.639 78.8942 215.797 79.8883C216.987 80.4406 218.26 80.9653 219.505 80.2197C220.225 79.7778 220.695 79.0875 221.553 78.839C222.466 78.5628 223.435 78.7561 224.32 78.977C225.897 79.3636 227.419 80.054 229.052 80.1644C230.989 80.3025 232.76 79.4741 234.642 79.2808C236.662 79.0875 238.073 80.3025 239.954 80.5786C241.781 80.8272 243.192 79.3636 245.018 79.6398C247.232 79.9711 249.418 80.7167 251.604 81.269C252.13 81.4071 252.351 80.6063 251.825 80.4682C249.529 79.8883 247.149 79.0046 244.797 78.7561C242.805 78.5352 241.366 80.1644 239.373 79.5569C237.519 79.0046 236.191 78.2038 234.199 78.48C232.068 78.7837 230.131 79.6121 227.945 79.1427C226.257 78.7837 224.625 77.9829 222.881 77.8725C222.245 77.8448 221.581 77.9001 220.972 78.1486C220.197 78.4524 219.782 79.0875 219.063 79.5017C217.402 80.4682 215.161 78.4247 213.39 78.2867C211.702 78.1486 210.153 78.7285 208.824 79.7502C208.409 80.1092 209.018 80.6891 209.433 80.3577Z" fill="#E8E8E8"/>
<path id="Vector_20" d="M53.2286 20.7384C53.7267 18.2807 56.9919 19.8547 58.1817 20.6003C59.5376 21.4563 60.9765 22.2295 62.6365 21.7601C64.4355 21.2354 65.6525 19.689 67.6455 19.5786C69.5265 19.4957 71.3535 20.3518 73.1245 20.904C74.6465 21.3735 76.2515 21.7049 77.8285 21.3183C79.6825 20.8764 81.2595 19.5786 83.1415 19.2472C86.8495 18.612 90.1975 21.622 93.9605 20.4622C94.4585 20.2965 94.2645 19.4957 93.7395 19.6614C89.8095 20.904 86.0745 17.4246 82.0895 18.6673C80.0415 19.3024 78.3265 20.7384 76.0845 20.6555C74.0095 20.5727 72.1285 19.5786 70.1635 19.0815C68.6135 18.6949 67.0365 18.5844 65.5425 19.2748C64.6845 19.6614 63.9375 20.2965 63.0795 20.7107C61.6685 21.3735 60.4785 20.9869 59.2056 20.2689C57.822 19.4681 56.6321 18.5292 54.9442 18.6673C53.7543 18.7501 52.7028 19.3576 52.4814 20.5727C52.3431 21.0421 53.1456 21.263 53.2286 20.7384Z" fill="#E8E8E8"/>
<path id="Vector_21" d="M55.7468 181.978C59.0396 180.598 62.3605 183.055 65.6805 183.221C67.3965 183.304 69.0565 182.89 70.7445 182.558C72.8755 182.144 74.7015 182.116 76.7495 182.972C77.9945 183.497 79.1285 183.828 80.4015 183.331C81.1215 183.055 81.7305 182.586 82.4495 182.337C83.2515 182.061 84.0825 182.006 84.9395 182.006C87.9005 182.061 90.8615 183.083 93.6835 181.757C94.1545 181.536 93.7395 180.819 93.2685 181.039C90.2525 182.448 86.9045 180.901 83.7225 181.233C82.2005 181.398 81.2045 182.282 79.7935 182.696C78.1055 183.193 76.4445 181.757 74.7845 181.509C71.2145 180.957 67.8395 182.945 64.2415 182.227C61.3645 181.647 58.4585 179.962 55.5254 181.205C55.055 181.398 55.2764 182.199 55.7468 181.978Z" fill="#E8E8E8"/>
</g>
<g id="particulas">
<path id="par blanca 1" d="M230.74 44.2934C231.266 44.2934 231.266 43.4649 230.74 43.4649C230.214 43.4649 230.214 44.2934 230.74 44.2934Z" fill="#E8E8E8"/>
<path id="par blanca 0" d="M-4.07839 141.302C-1.66379 141.302 0.293707 139.349 0.293707 136.939C0.293707 134.53 -1.66379 132.576 -4.07839 132.576C-6.49299 132.576 -8.45039 134.53 -8.45039 136.939C-8.45039 139.349 -6.49299 141.302 -4.07839 141.302Z" fill="#0A3871"/>
<path id="par azul 7" d="M250.414 111.313C252.11 111.313 253.486 109.941 253.486 108.248C253.486 106.555 252.11 105.183 250.414 105.183C248.718 105.183 247.342 106.555 247.342 108.248C247.342 109.941 248.718 111.313 250.414 111.313Z" fill="#0A3871"/>
<path id="par azul 6" d="M222.771 4.52875C224.024 4.52875 225.039 3.51496 225.039 2.26438C225.039 1.0138 224.024 0 222.771 0C221.517 0 220.501 1.0138 220.501 2.26438C220.501 3.51496 221.517 4.52875 222.771 4.52875Z" fill="#0A3871"/>
<path id="par azul 5" d="M122.822 200.894C124.381 200.894 125.645 199.633 125.645 198.077C125.645 196.522 124.381 195.261 122.822 195.261C121.263 195.261 119.999 196.522 119.999 198.077C119.999 199.633 121.263 200.894 122.822 200.894Z" fill="#0A3871"/>
<path id="par azul 3" d="M104.337 154.281C105.361 154.281 106.191 153.453 106.191 152.431C106.191 151.409 105.361 150.581 104.337 150.581C103.313 150.581 102.484 151.409 102.484 152.431C102.484 153.453 103.313 154.281 104.337 154.281Z" fill="#0A3871"/>
<path id="par azul 2" d="M279.329 170.021C280.888 170.021 282.152 168.76 282.152 167.205C282.152 165.649 280.888 164.388 279.329 164.388C277.771 164.388 276.508 165.649 276.508 167.205C276.508 168.76 277.771 170.021 279.329 170.021Z" fill="#0A3871"/>
<path id="par azul 0" d="M50.7936 20.1033C51.3194 20.1033 51.3194 19.2749 50.7936 19.2749C50.2678 19.2749 50.2678 20.1033 50.7936 20.1033Z" fill="#E8E8E8"/>
</g>
<g id="diamante">
<path id="diamante-junto" d="M57.6836 53.489C55.2762 58.3768 52.8411 63.2645 50.4337 68.1523C60.3955 81.49 70.3565 94.8001 80.3185 108.137C82.8925 104.244 85.4375 100.267 88.0115 96.2637C94.0715 86.7643 99.8545 77.3755 105.389 68.0694C103.508 63.2921 101.598 58.4872 99.7165 53.71C98.4985 53.0748 97.2815 52.4673 96.0635 51.8322C84.2755 51.8598 72.4875 51.8874 60.7275 51.915C59.6759 52.4673 58.6797 52.992 57.6836 53.489Z" fill="white"/>
<g id="diamante separado">
<path id="D-lin-0" d="M50.7658 68.3732C52.8688 63.7616 55.0272 59.1776 57.2409 54.6213C57.4622 54.1518 56.7704 53.71 56.5214 54.207C54.3077 58.7634 52.1493 63.3474 50.0463 67.959C49.8249 68.4284 50.5444 68.8703 50.7658 68.3732Z" fill="black"/>
<path id="D-lin-1" d="M50.2123 68.8702C59.9525 82.208 69.8865 95.38 80.0145 108.441C80.3465 108.855 80.9275 108.276 80.5955 107.861C70.5225 94.8554 60.6445 81.7385 50.9318 68.456C50.6274 68.0418 49.908 68.456 50.2123 68.8702Z" fill="black"/>
<path id="D-lin-2" d="M57.4346 54.1518C58.5967 53.5443 59.7313 52.9091 60.8935 52.3016C61.3635 52.0531 60.9485 51.3351 60.4785 51.5837C59.3162 52.1912 58.1817 52.8263 57.0195 53.4338C56.5214 53.71 56.9641 54.4003 57.4346 54.1518Z" fill="black"/>
<path id="D-lin-3" d="M61.5855 52.3568C70.2185 52.3568 78.8795 52.3568 87.5135 52.3568C88.0385 52.3568 88.0385 51.5284 87.5135 51.5284C78.8795 51.5284 70.2185 51.5284 61.5855 51.5284C61.0595 51.5284 61.0595 52.3568 61.5855 52.3568Z" fill="black"/>
<path id="D-lin-4" d="M105.777 67.9865C104.033 63.375 102.235 58.8186 100.381 54.2346C100.187 53.7376 99.3845 53.9585 99.5775 54.4555C101.432 59.0119 103.231 63.5959 104.974 68.2075C105.168 68.7045 105.97 68.4836 105.777 67.9865Z" fill="black"/>
<path id="D-lin-5" d="M104.863 68.4008C96.7555 81.6557 88.4815 94.8278 80.0415 107.889C79.7375 108.331 80.4565 108.745 80.7615 108.303C89.2015 95.242 97.4745 82.0975 105.583 68.815C105.86 68.3732 105.14 67.9314 104.863 68.4008Z" fill="black"/>
<path id="D-lin-6" d="M99.8825 53.3787C98.9135 52.7711 97.9455 52.136 96.9765 51.5285C96.5335 51.2523 96.1185 51.9427 96.5615 52.2465C97.5305 52.854 98.4985 53.4891 99.4675 54.0966C99.9375 54.4004 100.353 53.6824 99.8825 53.3787Z" fill="black"/>
<path id="D-lin-7" d="M96.0355 51.4456C88.8135 51.4456 81.5915 51.4456 74.3965 51.4456C73.8715 51.4456 73.8715 52.2741 74.3965 52.2741C81.6195 52.2741 88.8415 52.2741 96.0355 52.2741C96.5615 52.2741 96.5615 51.4456 96.0355 51.4456Z" fill="black"/>
<path id="D-lin-8" d="M51.098 68.7874C56.0511 66.6611 61.0045 64.5348 65.9575 62.4085C66.4555 62.1876 66.0125 61.4972 65.5425 61.6905C60.5895 63.8168 55.636 65.9431 50.6829 68.0694C50.2125 68.2904 50.6275 69.0083 51.098 68.7874Z" fill="black"/>
<path id="D-lin-9" d="M57.5729 53.9033C60.6165 54.3727 63.6055 55.0355 66.5655 55.8639C67.0915 56.002 67.3135 55.2012 66.7875 55.0631C63.8265 54.207 60.8385 53.5719 57.7942 53.1025C57.2685 53.0196 57.0194 53.8204 57.5729 53.9033Z" fill="black"/>
<path id="D-lin-10" d="M66.3445 55.7259C67.0085 57.797 67.5895 59.868 68.0875 61.9943C68.1985 62.519 69.0015 62.2981 68.8905 61.7734C68.3925 59.6471 67.8115 57.576 67.1475 55.505C66.9815 55.0079 66.1785 55.2012 66.3445 55.7259Z" fill="black"/>
<path id="D-lin-11" d="M67.6175 55.8087C75.0335 55.8087 82.4215 55.8087 89.8375 55.8087C90.3635 55.8087 90.3635 54.9802 89.8375 54.9802C82.4215 54.9802 75.0335 54.9802 67.6175 54.9802C67.0915 54.9802 67.0915 55.8087 67.6175 55.8087Z" fill="black"/>
<path id="D-lin-12" d="M89.4775 55.9744C89.2015 57.4932 88.9245 59.0396 88.6475 60.5584C88.5645 61.0831 89.3675 61.304 89.4505 60.7793C89.7265 59.2605 90.0035 57.7141 90.2805 56.1953C90.3635 55.6706 89.5605 55.4497 89.4775 55.9744Z" fill="black"/>
<path id="D-lin-13" d="M68.5305 62.0495C75.0055 62.0495 81.4805 62.0495 87.9835 62.0495C88.5095 62.0495 88.5095 61.221 87.9835 61.221C81.5085 61.221 75.0335 61.221 68.5305 61.221C68.0045 61.221 68.0045 62.0495 68.5305 62.0495Z" fill="black"/>
<path id="D-lin-14" d="M90.6405 55.8087C93.6565 55.1736 96.6445 54.5384 99.6605 53.9033C100.187 53.7929 99.9655 52.992 99.4395 53.1025C96.4235 53.7376 93.4345 54.3728 90.4185 55.0079C89.8925 55.1183 90.1145 55.9192 90.6405 55.8087Z" fill="black"/>
<path id="D-lin-15" d="M89.2565 61.801C92.0515 62.2428 94.6525 63.8168 97.1985 65.0042C99.9095 66.2745 102.594 67.5448 105.306 68.815C105.777 69.0359 106.219 68.318 105.721 68.097C102.844 66.7439 99.9925 65.4185 97.1155 64.0654C94.6805 62.9056 92.1615 61.442 89.4775 61.0002C88.9525 60.9173 88.7305 61.7181 89.2565 61.801Z" fill="black"/>
<path id="D-lin-16" d="M68.7795 63.3198C72.3775 78.1211 75.9465 92.95 79.5435 107.751C79.6825 108.276 80.4565 108.055 80.3465 107.53C76.7495 92.7291 73.1795 77.9002 69.5825 63.0989C69.4435 62.5742 68.6415 62.7951 68.7795 63.3198Z" fill="black"/>
<path id="D-lin-17" d="M88.0945 64.3139C84.7185 78.5629 81.9235 92.9776 79.7655 107.475C79.6825 107.999 80.4845 108.22 80.5675 107.696C82.7255 93.1985 85.5205 78.8114 88.8965 64.5348C89.0355 64.0101 88.2325 63.7892 88.0945 64.3139Z" fill="black"/>
</g>
<g id="destellos diamante">
<path id="D-des-0" d="M88.3705 36.672C89.6165 33.4963 90.3075 30.155 90.4185 26.7308C90.4465 26.2061 89.6165 26.2061 89.5885 26.7308C89.4775 30.0721 88.7865 33.3306 87.5685 36.4511C87.3745 36.9481 88.1775 37.1414 88.3705 36.672Z" fill="black"/>
<path id="D-des-1" d="M94.0435 37.2242C96.6995 34.2142 99.6885 31.5632 103.037 29.3265C103.48 29.0227 103.065 28.3048 102.622 28.6085C99.2185 30.8729 96.1465 33.5791 93.4625 36.6443C93.1025 37.0309 93.6835 37.6108 94.0435 37.2242Z" fill="black"/>
<path id="D-des-2" d="M99.4945 42.3329C102.927 41.3112 106.468 40.9246 110.038 41.2007C110.564 41.2283 110.564 40.3999 110.038 40.3723C106.385 40.0961 102.788 40.4827 99.2735 41.5321C98.7755 41.6978 98.9695 42.4986 99.4945 42.3329Z" fill="black"/>
</g>
</g>
<g id="estrella">
<path id="estrella der" d="M41.1916 22.9752C41.5236 28.4428 38.4521 33.662 33.5266 36.0368C33.2499 36.1749 33.2776 36.5891 33.5266 36.7548C38.037 39.461 40.1124 44.4316 41.3023 49.3193C41.4406 49.844 42.2154 49.6231 42.1047 49.0984C40.8595 43.9897 38.6458 38.8258 33.9417 36.0368C33.9417 36.2853 33.9417 36.5062 33.9417 36.7548C39.1162 34.2419 42.3814 28.6914 42.0217 22.9752C41.994 22.4505 41.1639 22.4505 41.1916 22.9752Z" fill="#E8E8E8"/>
<path id="estrella izq" d="M41.4959 22.9752C41.1362 28.719 44.4014 34.2695 49.5759 36.7548C49.5759 36.5062 49.5759 36.2853 49.5759 36.0368C44.8441 38.8534 42.6304 44.0173 41.3852 49.1536C41.2469 49.6783 42.0493 49.8992 42.1877 49.3745C43.3776 44.4592 45.4529 39.461 49.991 36.7548C50.24 36.6167 50.2677 36.1749 49.991 36.0368C45.0655 33.6619 41.9663 28.4428 42.2984 22.9752C42.3537 22.4505 41.5236 22.4505 41.4959 22.9752Z" fill="#E8E8E8"/>
</g>
<g id="personaje">
<path id="entrepierna" d="M171.772 204.153C172.907 204.76 174.042 205.368 175.204 205.975C175.674 206.224 176.089 205.506 175.619 205.257C174.484 204.65 173.35 204.042 172.188 203.435C171.717 203.186 171.302 203.904 171.772 204.153Z" fill="black"/>
<path id="dorso" d="M153.094 112.584C157.3 109.104 163.582 104.907 171.966 102.421C175.895 101.262 180.821 99.8264 187.351 100.378C197.368 101.234 204.258 106.149 206.694 107.944C210.512 110.733 213.113 113.688 214.718 115.759C215.023 135.117 215.438 154.502 215.963 173.86C216.129 179.825 216.295 185.817 216.489 191.782C212.56 194.212 207.053 196.945 200.08 198.547C183.754 202.275 170.168 197.304 164.661 194.902C164.633 190.014 164.329 182.669 162.835 173.86C160.4 159.39 156.609 153.563 154.229 141.109C153.039 134.675 151.905 125.01 153.094 112.584Z" fill="#0A3871"/>
<g id="pierna I">
<path id="pie izq" d="M176.228 230.276C177.196 229.862 178.524 229.254 180.046 228.398C182.592 226.99 183.865 226.272 184.64 225.14C185.636 223.648 185.248 222.848 186.549 221.356C186.743 221.108 187.656 220.141 188.846 219.617C190.893 218.761 192.803 219.782 195.985 220.915C198.918 221.964 201.215 222.461 205.808 223.483C207.634 223.897 209.848 224.311 213.058 225.305C213.971 225.581 214.691 225.83 215.189 225.996C215.244 226.576 215.272 228.067 214.303 229.42C213.86 230.027 213.252 230.524 212.283 230.966C210.042 232.016 207.911 231.822 206.112 231.739C202.238 231.574 203.843 232.126 194.712 232.292C192.72 232.319 191.087 232.319 189.952 232.319C188.541 233.286 187.13 234.28 185.691 235.302C183.256 237.069 180.932 238.836 178.718 240.576C177.888 237.152 177.058 233.7 176.228 230.276Z" fill="black"/>
<path id="pierna izq" d="M164.689 194.93C162.696 195.979 162.475 196.365 155.059 202.662C143.493 212.465 142.22 212.989 131.732 222.13C121.688 230.856 119.806 233.037 117.897 235.909C113.137 243.172 112.086 249.247 111.781 252.202C111.366 256.178 110.813 261.701 114.327 266.064C116.541 268.798 119.419 269.93 120.387 270.289C123.293 271.394 125.672 271.256 129.961 270.952C135.662 270.538 140.006 269.433 141.722 268.964C143.603 268.439 147.975 267.141 153.454 264.435C158.601 261.894 160.815 260.017 167.843 255.295C170.97 253.196 175.591 250.131 181.402 246.596C181.762 243.835 181.458 241.681 181.153 240.328C180.434 237.124 178.967 234.915 177.335 232.485C176.006 230.497 174.733 228.978 173.848 227.984C175.923 226.41 178.635 224.146 181.485 221.108C183.395 219.064 186.411 215.806 188.929 211.222C192.028 205.589 195.127 199.9 193.135 195.979C190.008 189.821 175.121 189.545 164.689 194.93Z" fill="white"/>
<path id="sombra pierna izq" opacity="0.18" d="M189.482 197.94C187.905 201.585 185.304 206.748 181.153 212.271C175.121 220.252 169.033 224.67 159.846 231.215C133.863 249.716 126.89 253.941 127.665 255.709C128.716 258.111 143.354 253.803 145.485 253.168C161.036 248.584 172.492 241.515 179.659 236.351C177.833 233.562 176.006 230.773 174.18 228.012C176.421 226.41 179.521 223.869 182.426 220.086C184.031 218.015 186.466 214.812 188.043 209.979C189.648 205.174 189.704 200.894 189.482 197.94Z" fill="#9B9797"/>
<path id="contorno piena izq" d="M164.578 194.902C154.727 202.22 145.125 209.897 135.883 217.932C131.456 221.771 127.028 225.609 122.878 229.724C119.197 233.369 115.766 237.401 113.691 242.205C111.532 247.176 110.924 252.92 111.449 258.305C111.892 262.751 113.525 267.224 117.592 269.544C121.854 271.946 127.222 271.698 131.926 271.201C137.709 270.621 143.41 269.212 148.805 267.031C160.842 262.143 170.278 253.003 181.651 246.955C182.122 246.707 181.707 245.989 181.236 246.237C171.745 251.291 163.665 258.581 154.146 263.634C149.165 266.285 143.797 268.218 138.263 269.406C133.144 270.483 127.388 271.311 122.186 270.317C119.751 269.847 117.399 268.853 115.655 267.031C113.967 265.236 113.054 262.889 112.584 260.486C111.56 255.267 112.03 249.358 113.746 244.332C115.462 239.306 118.81 235.081 122.462 231.325C126.253 227.432 130.404 223.842 134.472 220.28C144.295 211.664 154.478 203.435 164.993 195.648C165.408 195.316 165.021 194.598 164.578 194.902Z" fill="black"/>
<g id="pierna izq separada">
<path id="Vector_43" d="M137.46 251.511C146.536 248.004 154.755 242.758 162.558 237.014C166.404 234.197 170.195 231.27 173.959 228.343C177.667 225.443 181.208 222.378 184.086 218.65C184.418 218.236 183.699 217.822 183.367 218.236C180.434 222.047 176.753 225.112 172.99 228.067C169.282 230.966 165.547 233.838 161.728 236.627C154.091 242.205 146.094 247.342 137.239 250.738C136.741 250.904 136.962 251.705 137.46 251.511Z" fill="black"/>
<path id="Vector_44" d="M173.544 228.26C178.884 232.734 181.707 239.665 180.959 246.596C180.904 247.121 181.734 247.121 181.79 246.596C182.537 239.472 179.604 232.292 174.125 227.68C173.737 227.321 173.156 227.901 173.544 228.26Z" fill="black"/>
<path id="Vector_45" d="M180.904 238.892C182.481 238.422 183.865 237.097 185.193 236.158C186.853 234.998 188.486 233.838 190.146 232.678C190.589 232.375 190.174 231.657 189.731 231.96C188.237 233.01 186.715 234.087 185.221 235.136C183.837 236.103 182.315 237.594 180.683 238.091C180.157 238.229 180.378 239.03 180.904 238.892Z" fill="black"/>
<path id="Vector_46" d="M176.338 230.662C179.465 229.365 182.343 227.597 184.944 225.416C185.359 225.057 184.75 224.477 184.363 224.836C181.9 226.935 179.133 228.619 176.145 229.862C175.646 230.083 175.868 230.883 176.338 230.662Z" fill="black"/>
</g>
<path id="bolita pie izq" d="M184.64 225.057C185.165 225.057 185.165 224.228 184.64 224.228C184.114 224.228 184.114 225.057 184.64 225.057Z" fill="black"/>
<g id="pie der separado">
<path id="Vector_47" d="M185.636 224.063C186.106 222.958 186.604 221.743 187.49 220.887C188.68 219.727 190.119 219.893 191.64 220.224C194.463 220.859 197.23 221.743 199.997 222.544C202.571 223.262 205.144 223.897 207.8 224.201C209.35 224.366 210.651 224.56 212.034 225.25C213.058 225.747 213.943 226.244 215.078 226.355C215.604 226.41 215.604 225.582 215.078 225.526C213.556 225.388 212.366 224.339 210.927 223.869C209.488 223.4 207.883 223.428 206.389 223.179C203.124 222.654 199.942 221.66 196.787 220.721C195.238 220.28 193.688 219.838 192.111 219.479C190.949 219.23 189.731 218.926 188.569 219.285C186.549 219.893 185.58 222.047 184.833 223.842C184.64 224.339 185.442 224.56 185.636 224.063Z" fill="black"/>
<path id="Vector_48" d="M190.036 233.286C195.957 232.402 201.823 232.264 207.8 232.154C209.876 232.126 212.089 231.878 213.75 230.524C215.161 229.365 215.963 227.68 215.576 225.885C215.465 225.361 214.663 225.581 214.774 226.106C215.299 228.619 213.03 230.469 210.789 231.022C208.492 231.574 206.002 231.298 203.65 231.353C199.001 231.436 194.408 231.822 189.814 232.513C189.288 232.568 189.537 233.369 190.036 233.286Z" fill="black"/>
</g>
</g>
<g id="pierna D">
<path id="pie der" d="M211.038 227.79C213.086 226.327 215.161 224.863 217.209 223.4C217.347 222.461 217.79 220.417 219.478 218.678C219.976 218.153 221.138 216.938 222.881 216.607C224.708 216.248 226.119 217.076 227.696 217.794C230.242 218.954 232.704 219.396 237.575 220.335C241.421 221.053 243.358 221.412 246.125 221.273C249.888 221.053 252.572 220.058 254.177 221.632C254.343 221.798 255.035 222.544 254.98 223.455C254.897 224.615 253.652 225.36 252.655 225.94C248.311 228.426 245.876 229.144 245.876 229.144C239.733 230.938 236.634 231.85 233.977 232.071C231.819 232.236 228.747 232.319 225.04 231.739C223.96 235.44 220.695 237.814 217.624 237.621C213.667 237.373 210.014 232.927 211.038 227.79Z" fill="black"/>
<path id="pierna der" d="M171.302 203.379C171.911 201.529 173.045 199.182 175.176 198.409C176.56 197.912 177.832 198.243 178.248 198.354C180.821 198.989 186.106 198.077 196.649 196.282C201.879 195.399 208.492 194.101 216.102 192.168C216.129 193.576 216.102 195.426 216.019 197.58C215.825 202.413 215.327 206.058 215.216 206.914C214.746 210.338 213.916 216.027 211.398 222.93C210.761 224.698 210.125 226.161 209.682 227.155C210.761 227.652 211.923 228.315 213.058 229.254C217.734 232.982 219.09 238.256 219.533 240.493C218.869 241.294 217.872 242.481 216.599 243.834C211.452 249.302 206.694 252.367 197.617 257.973C192.028 261.425 187.932 263.938 181.374 267.804C173.405 272.498 166.958 276.143 158.933 278.435C156.941 279.015 153.786 279.788 149.802 279.374C147.865 279.181 144.378 278.822 141.03 276.392C136.741 273.299 135.385 268.77 134.831 266.782C133.586 262.336 134.057 258.166 135.219 253.831C136.021 250.793 138.927 240.714 149.027 229.364C151.047 227.1 156.802 221.991 168.258 211.774C171.025 209.316 173.294 207.301 174.816 205.975C173.654 205.091 172.492 204.235 171.302 203.379Z" fill="white"/>
<path id="sombra pierna der" opacity="0.18" d="M208.935 195.73C208.298 198.16 207.275 201.667 205.725 205.782C191.585 243.172 159.984 259.326 162.558 263.358C164.44 266.34 182.481 258.912 195.487 251.097C205.227 245.243 212.477 238.974 217.319 234.252C216.544 233.12 215.355 231.574 213.556 230.11C211.813 228.702 210.152 227.846 208.907 227.321C209.765 226.078 210.9 224.201 211.868 221.798C212.504 220.252 213.058 218.595 213.777 215.226C214.94 209.896 215.41 205.671 215.548 204.346C215.88 201.17 216.185 197.056 216.129 192.195C213.722 193.355 211.342 194.543 208.935 195.73Z" fill="#9B9797"/>
<g id="pierna der separada">
<path id="Vector_49" d="M215.714 192.168C215.742 197.387 215.41 202.606 214.691 207.798C214.026 212.464 213.196 217.269 211.481 221.688C209.627 226.465 206.444 229.944 202.598 233.23C198.669 236.572 194.712 239.858 190.755 243.144C186.217 246.927 181.651 250.683 177.113 254.466C176.698 254.797 177.279 255.377 177.694 255.046C186.023 248.142 194.352 241.266 202.626 234.28C206.278 231.187 209.599 227.984 211.591 223.538C213.528 219.23 214.469 214.508 215.216 209.869C216.157 204.014 216.599 198.105 216.543 192.168C216.543 191.616 215.714 191.616 215.714 192.168Z" fill="black"/>
<path id="Vector_50" d="M175.204 205.644C165.353 213.652 155.004 221.577 146.785 231.298C139.702 239.665 133.863 250.269 133.891 261.508C133.891 266.451 135.247 271.615 138.899 275.122C142.552 278.656 147.837 280.037 152.818 279.788C158.905 279.485 164.689 277.082 170.112 274.431C175.923 271.587 181.43 268.218 186.964 264.877C198.364 257.973 211.093 251.539 219.644 241.018C219.976 240.604 219.395 240.024 219.063 240.438C211.896 249.275 201.823 254.935 192.221 260.734C186.936 263.938 181.706 267.196 176.311 270.234C171.025 273.216 165.519 276.06 159.68 277.745C154.201 279.319 148.086 279.65 142.911 276.917C137.931 274.321 135.385 269.295 134.859 263.827C133.835 252.782 139.397 241.791 146.121 233.396C154.506 222.93 165.463 214.591 175.812 206.196C176.2 205.892 175.619 205.312 175.204 205.644Z" fill="black"/>
<path id="Vector_51" d="M209.488 227.487C214.691 229.972 218.314 234.887 219.172 240.576C219.255 241.101 220.059 240.88 219.976 240.355C219.118 234.473 215.299 229.309 209.931 226.769C209.433 226.548 209.018 227.266 209.488 227.487Z" fill="black"/>
<path id="Vector_52" d="M211.149 228.205C212.255 227.763 213.141 227.017 214.082 226.299C215.189 225.443 216.323 224.615 217.43 223.759C217.845 223.427 217.43 222.709 217.015 223.041C216.019 223.786 215.023 224.532 214.026 225.305C213.058 226.051 212.089 226.962 210.927 227.404C210.457 227.597 210.651 228.398 211.149 228.205Z" fill="black"/>
<path id="Vector_53" d="M219.034 236.765C221.109 235.191 223.158 233.617 225.233 232.043C225.648 231.712 225.233 230.994 224.818 231.325C222.743 232.899 220.695 234.473 218.62 236.047C218.205 236.378 218.619 237.096 219.034 236.765Z" fill="black"/>
</g>
<g id="pie der separado_2">
<path id="Vector_54" d="M217.845 223.427C218.398 221.798 219.063 220.196 219.948 218.705C221.166 216.662 222.992 216.883 225.04 217.407C228.222 218.208 231.265 219.423 234.474 220.141C240.7 221.522 247.094 221.991 253.458 221.577C253.984 221.55 253.984 220.721 253.458 220.749C245.959 221.246 238.405 220.473 231.155 218.429C229.412 217.932 227.724 217.297 225.98 216.8C224.652 216.413 223.075 215.971 221.691 216.248C220.446 216.496 219.727 217.435 219.118 218.484C218.26 219.976 217.596 221.577 217.043 223.206C216.877 223.703 217.679 223.924 217.845 223.427Z" fill="black"/>
<path id="Vector_55" d="M225.206 231.85C231.957 233.313 238.847 232.209 245.24 229.779C248.145 228.674 251.466 227.431 253.956 225.554C255.699 224.256 255.948 221.771 253.652 220.887C253.153 220.694 252.932 221.494 253.43 221.688C254.675 222.157 254.814 223.51 253.956 224.449C253.541 224.919 252.96 225.222 252.406 225.554C251.272 226.189 250.11 226.769 248.947 227.321C246.485 228.481 243.939 229.475 241.31 230.248C236.136 231.739 230.712 232.236 225.399 231.077C224.901 230.938 224.68 231.739 225.206 231.85Z" fill="black"/>
</g>
</g>
<g id="brazo I">
<path id="brazo izq" d="M203.124 117.361C201.768 118.852 201.519 120.536 201.602 126.998C201.657 133.791 202.017 138.43 202.239 143.815C202.405 147.709 202.543 150.802 202.46 154.833C202.377 159.914 202.045 164.084 201.74 166.873C199.029 169.911 196.621 172.286 194.823 173.998C190.783 177.836 186.383 181.978 179.88 185.872C177.307 187.391 175.093 188.495 173.599 189.186C172.243 188.965 170.721 188.633 169.061 188.219C165.131 187.225 163.499 186.341 160.538 186.341C159.653 186.341 156.858 186.341 156.581 187.335C156.332 188.164 157.882 189.462 159.099 190.097C160.234 190.677 160.732 190.511 161.866 191.036C163.139 191.643 163.969 192.527 164.467 193.19C163.942 193.935 163.139 195.067 162.254 196.531C161.23 198.243 161.008 198.906 159.819 200.949C158.573 203.103 157.937 204.18 157.384 204.732C156.526 205.533 156 205.699 152.154 207.411C148.335 209.123 147.671 209.51 147.671 209.979C147.671 210.449 148.418 210.559 151.379 211.829C153.786 212.851 154.008 213.072 155.253 213.431C156.802 213.873 157.743 214.149 158.878 213.9C160.676 213.541 161.839 212.188 162.337 211.47C162.586 211.691 163.194 212.161 163.997 212.188C164.633 212.188 165.159 211.94 165.574 211.608C167.317 210.366 168.175 208.074 169.891 205.506C170.195 205.064 171.274 203.435 173.018 201.612C174.097 200.452 175.093 199.596 175.813 199.016C176.781 198.795 178.22 198.464 179.936 197.967C186.604 196.062 191.419 193.77 195.459 191.837C197.811 190.704 200.468 189.213 205.753 186.258C210.346 183.69 212.726 182.254 214.829 179.438C215.05 179.134 216.185 177.615 217.181 175.378C217.485 174.688 218.565 172.23 219.146 167.923C219.422 166.017 219.422 164.968 219.45 159.003C219.505 151.409 219.505 152.32 219.505 151.547C219.478 140.419 218.897 141.413 218.703 131.195C218.675 130.229 218.648 127.606 217.845 124.292C216.987 120.702 215.908 119.1 215.299 118.3C214.525 117.278 213.584 116.063 211.979 115.372C209.046 114.075 205.144 115.124 203.124 117.361Z" fill="white"/>
<path id="sombra brazo izquierdo" opacity="0.25" d="M212.006 115.345C212.671 117.526 213.473 120.674 214.026 124.485C214.691 129.097 214.94 134.178 213.445 147.46C212.2 158.561 211.591 164.112 209.986 169.303C207.69 176.704 206.029 182.089 200.966 186.341C197.7 189.075 194.131 190.345 186.964 192.858C181.706 194.708 177.196 195.813 174.097 196.503C171.883 199.486 168.59 203.269 163.914 206.859C160.261 209.675 156.747 211.608 153.842 212.934C154.257 213.21 155.972 214.315 158.297 214.011C161.008 213.652 162.475 211.719 162.724 211.36C163.25 211.747 164.025 212.161 164.882 212.023C166.653 211.747 167.594 209.234 168.065 208.101C169.088 205.754 171.136 202.523 175.729 198.989C178.773 198.188 182.896 196.973 187.683 195.15C194.352 192.582 198.835 190.097 203.65 187.418C211.37 183.11 213.113 181.343 214.386 179.631C216.711 176.511 217.679 173.307 218.094 171.899C218.841 169.386 218.98 166.569 219.256 161.074C219.45 156.987 219.45 153.839 219.45 151.464C219.45 147.377 219.367 144.34 219.284 141.717C219.173 137.906 218.952 133.432 218.398 128.075C217.983 124.181 217.679 122.635 216.794 120.895C215.438 118.134 213.418 116.367 212.006 115.345Z" fill="#9B9797"/>
<g id="brazo izq separado">
<path id="Vector_56" d="M202.709 117.25C201.27 120.84 201.104 124.706 201.187 128.544C201.27 132.769 201.491 136.967 201.685 141.192C202.073 149.752 202.349 158.34 201.325 166.873C201.27 167.398 202.1 167.398 202.156 166.873C203.152 158.534 202.93 150.111 202.543 141.744C202.349 137.602 202.128 133.46 202.017 129.29C201.906 125.286 201.989 121.254 203.511 117.471C203.705 116.974 202.903 116.753 202.709 117.25Z" fill="black"/>
<path id="Vector_57" d="M202.93 166.155C200.385 167.564 198.337 169.607 196.372 171.733C194.242 174.025 192.111 176.262 189.731 178.306C184.861 182.531 179.382 186.01 173.516 188.716C173.018 188.937 173.46 189.655 173.931 189.434C179.576 186.838 184.861 183.525 189.593 179.521C191.945 177.56 194.103 175.406 196.179 173.169C198.337 170.822 200.495 168.447 203.318 166.901C203.816 166.597 203.401 165.879 202.93 166.155Z" fill="black"/>
<path id="Vector_58" d="M176.062 199.541C183.45 197.47 190.617 194.709 197.479 191.284C200.883 189.572 204.203 187.722 207.441 185.679C210.346 183.856 213.418 182.006 215.493 179.217C215.797 178.775 215.078 178.361 214.774 178.803C212.615 181.73 209.239 183.635 206.196 185.513C203.096 187.418 199.886 189.186 196.621 190.815C189.953 194.101 183.007 196.752 175.84 198.768C175.342 198.878 175.563 199.679 176.062 199.541Z" fill="black"/>
<path id="Vector_59" d="M203.262 117.996C205.559 113.495 211.453 114.516 214.358 117.72C217.845 121.586 218.011 127.247 218.398 132.162C219.229 142.904 219.395 153.729 218.731 164.471C218.398 169.69 217.624 175.213 214.137 179.355C213.805 179.769 214.386 180.349 214.718 179.935C217.845 176.179 218.924 171.43 219.367 166.68C219.948 160.605 219.948 154.447 219.893 148.344C219.837 141.965 219.533 135.559 218.952 129.207C218.509 124.43 217.651 119.156 213.694 115.98C210.318 113.274 204.674 113.357 202.515 117.582C202.294 118.051 203.013 118.465 203.262 117.996Z" fill="black"/>
</g>
<g id="mano izq">
<path id="Vector_60" d="M173.709 188.771C170.666 188.136 167.594 187.473 164.55 186.783C163.028 186.452 161.479 186.038 159.929 185.761C158.961 185.596 157.937 185.513 157.079 186.065C155.751 186.921 155.751 188.495 156.941 189.434C157.799 190.124 158.905 190.428 159.929 190.76C161.59 191.284 163.001 191.947 164.08 193.355C164.412 193.77 165.131 193.355 164.799 192.941C163.831 191.698 162.669 190.815 161.174 190.29C160.151 189.931 159.016 189.71 158.075 189.186C157.411 188.827 156.553 188.274 157.051 187.28C157.522 186.341 158.712 186.424 159.57 186.562C161.866 186.894 164.163 187.556 166.46 188.081C168.812 188.606 171.164 189.103 173.516 189.6C174.014 189.683 174.235 188.882 173.709 188.771Z" fill="black"/>
<path id="Vector_61" d="M163.416 193.494C162.198 195.73 160.953 197.939 159.736 200.176C159.127 201.253 158.601 202.413 157.882 203.462C157.134 204.539 156.138 205.092 154.976 205.644C152.79 206.666 150.438 207.494 148.335 208.681C147.394 209.234 146.785 210.228 147.588 211.194C148.584 212.382 150.549 211.912 151.877 211.691C153.703 211.388 155.446 210.78 157.107 210.007C160.566 208.35 163.499 205.754 165.602 202.551C165.906 202.109 165.187 201.695 164.882 202.137C163.028 205.009 160.455 207.328 157.439 208.93C156 209.676 154.45 210.283 152.873 210.642C151.988 210.863 151.047 211.056 150.106 211.084C149.248 211.139 149.027 211.25 148.612 210.394C148.086 209.896 148.141 209.565 148.75 209.399C148.944 209.317 149.11 209.234 149.303 209.151C151.074 208.322 152.873 207.522 154.644 206.693C156.028 206.058 157.383 205.506 158.324 204.263C159.431 202.8 160.206 201.06 161.091 199.458C162.115 197.608 163.139 195.758 164.135 193.935C164.384 193.438 163.665 193.024 163.416 193.494Z" fill="black"/>
<path id="Vector_62" d="M151.13 212.161C153.15 213.072 155.585 214.453 157.882 214.453C160.095 214.425 161.728 212.603 163.222 211.222C167.511 207.245 171.8 203.269 176.089 199.32C176.477 198.961 175.896 198.381 175.508 198.74C171.883 202.109 168.258 205.45 164.633 208.819C163.028 210.283 161.368 212.382 159.348 213.293C156.968 214.37 153.703 212.437 151.573 211.47C151.074 211.222 150.659 211.94 151.13 212.161Z" fill="black"/>
<path id="Vector_63" d="M162.392 211.581C163.305 213.293 165.325 212.603 166.349 211.415C168.369 209.04 169.946 206.169 171.662 203.6C171.966 203.159 171.247 202.744 170.942 203.186C169.863 204.788 168.784 206.39 167.705 207.991C167.096 208.875 164.412 213.652 163.111 211.167C162.862 210.697 162.143 211.112 162.392 211.581Z" fill="black"/>
<path id="Vector_64" d="M155.972 210.228C156.802 210.67 157.826 211.112 158.739 210.67C159.21 210.421 159.404 210.035 159.625 209.593C160.012 208.847 160.4 208.267 161.119 207.798C161.562 207.494 161.147 206.776 160.704 207.08C160.04 207.522 159.487 208.074 159.099 208.792C158.822 209.317 158.656 209.952 157.937 210.007C157.411 210.062 156.83 209.731 156.387 209.51C155.945 209.289 155.502 209.979 155.972 210.228Z" fill="black"/>
</g>
</g>
<g id="cabeza">
<path id="cabeza cuello" d="M150.3 52.4397C149.331 54.4003 148.363 57.6864 148.058 58.7633C147.616 60.3098 146.619 63.9272 146.066 68.7321C145.762 71.3831 145.43 74.2826 145.706 78.121C145.845 79.9436 146.038 82.8155 147.117 86.3777C147.837 88.8078 148.888 92.3148 151.739 95.9047C154.229 99.0251 157.079 100.985 159.348 102.173C160.787 102.2 162.53 102.118 164.467 101.759C167.954 101.096 170.666 99.7983 172.492 98.749C172.741 100.157 173.073 101.648 173.488 103.194C174.346 106.398 175.397 109.214 176.449 111.644C177.583 111.451 178.939 111.12 180.378 110.457C184.944 108.331 187.13 104.41 187.905 102.78C187.49 101.179 187.158 99.4393 186.853 97.6444C185.802 90.9341 186.079 84.9418 186.743 80.0816C187.324 80.2749 188.265 80.5235 189.427 80.4682C191.696 80.3302 193.245 79.0875 194.02 78.4248C194.684 77.8725 197.7 75.1939 197.59 71.2174C197.562 70.2785 197.507 67.9865 195.874 66.7439C194.352 65.6117 192.305 66.0259 190.81 66.3297C189.095 66.6887 187.822 67.4066 187.047 67.9037C187.628 65.9983 188.846 61.1106 187.047 55.422C186.66 54.207 184.086 46.4749 176.504 43.1336C166.211 38.5496 153.842 45.3428 150.3 52.4397Z" fill="white"/>
<path id="sombra cara" opacity="0.24" d="M181.568 52.6054C181.789 55.1736 181.956 58.9015 181.568 63.3198C180.378 76.7128 175.065 86.0188 173.682 88.3384C171.579 91.8731 167.982 97.0093 162.226 102.062C163.942 101.841 165.906 101.455 168.009 100.709C173.793 98.6662 177.666 95.1592 179.769 92.8672C179.936 95.9324 180.461 99.6603 181.706 103.747C182.26 105.487 182.869 107.088 183.505 108.524C184.972 106.619 186.411 104.713 187.877 102.78C187.573 100.985 187.296 99.0804 187.102 97.1198C186.466 91.1827 186.466 85.7151 186.798 80.8549C188.043 80.8825 189.842 80.7721 191.751 80.0265C200.108 76.7128 204.867 63.5407 200.357 56.361C200.163 56.0572 199.167 54.5108 197.119 53.1301C190.783 48.8775 182.73 52.1084 181.568 52.6054Z" fill="#9B9797"/>
<path id="cabello" d="M148.28 57.935C147.726 56.0296 146.951 52.3845 147.754 47.911C148.003 46.5302 148.861 42.0843 151.905 38.5773C156.36 33.4686 161.949 34.4351 169.199 31.8394C173.792 30.2102 180.101 26.786 186.494 18.7226C185.912 21.7049 185.331 24.7149 184.75 27.6972C185.746 27.9734 189.095 28.6914 192.526 27.0069C198.226 24.2178 198.724 17.4799 198.752 17.1762C199.444 18.7226 200.689 22.1468 200.135 26.5098C199.748 29.4922 198.669 31.7289 197.894 33.082C198.226 33.441 199.997 35.2636 202.045 34.9874C204.535 34.6561 206.86 31.2595 206.195 26.8688C206.749 28.4981 207.413 31.1767 207.247 34.4628C207.026 38.4668 205.697 41.4768 204.812 43.1061C205.033 43.2994 206.444 44.5696 208.437 44.3211C210.18 44.1002 211.674 42.8299 212.255 41.035C212.117 42.8851 211.785 45.5637 210.706 48.6289C209.239 52.7711 208.022 53.1025 207.413 56.0572C206.444 60.6964 208.935 62.2704 208.271 66.4126C207.717 69.892 205.448 72.0735 202.571 74.8626C197.341 79.916 191.336 82.6498 186.3 84.1686C186.521 82.6222 186.77 81.0758 186.992 79.5294C187.628 79.916 188.735 80.4407 190.118 80.3855C192.941 80.275 194.712 77.7621 195.653 76.409C196.732 74.8902 198.531 72.2945 197.562 69.5054C196.76 67.241 194.629 66.3021 194.435 66.2193C191.945 65.1699 188.735 66.1088 186.66 68.6494C185.497 64.093 184.363 59.5642 183.201 55.0079C179.271 52.5226 175.37 50.0649 171.44 47.5796C169.503 47.2206 164.218 46.5026 158.297 49.126C152.32 51.777 149.276 56.2781 148.28 57.935Z" fill="#0A3871"/>
<path id="perfil der" d="M147.865 57.8246C145.513 66.6059 144.101 75.9396 146.26 84.9143C148.031 92.2045 152.513 100.516 160.151 102.891C160.649 103.057 160.87 102.256 160.372 102.09C152.707 99.7156 148.418 91.0723 146.841 83.7821C144.987 75.2216 146.398 66.385 148.639 58.0455C148.805 57.5484 148.003 57.3275 147.865 57.8246Z" fill="black"/>
<path id="menton" d="M160.759 102.753C173.516 101.455 184.169 92.2596 187.158 79.7779C187.268 79.2532 186.494 79.0323 186.355 79.557C183.45 91.6245 173.184 100.654 160.759 101.924C160.234 101.979 160.206 102.808 160.759 102.753Z" fill="black"/>
<path id="oreja izq" d="M186.438 79.9988C192.139 83.4782 197.7 76.188 198.06 71.0794C198.254 68.3732 197.009 66.3021 194.325 65.5289C191.834 64.8109 189.122 65.5565 187.351 67.4343C186.992 67.8209 187.573 68.4008 187.933 68.0142C189.399 66.4401 191.613 65.7498 193.743 66.2192C194.85 66.4678 196.068 67.0753 196.704 68.0694C197.396 69.1464 197.313 70.6375 197.147 71.8249C196.483 76.1052 191.723 82.2356 186.853 79.2532C186.411 79.0047 185.968 79.7227 186.438 79.9988Z" fill="black"/>
<g id="cuello">
<path id="Vector_65" d="M186.383 79.9436C185.304 87.5928 185.691 95.3524 187.517 102.863C187.656 103.388 188.458 103.167 188.32 102.642C186.521 95.2696 186.134 87.648 187.185 80.1645C187.241 79.6398 186.438 79.4189 186.383 79.9436Z" fill="black"/>
<path id="Vector_66" d="M172.077 98.8594C172.935 103.333 174.263 107.668 176.089 111.865C176.311 112.362 177.03 111.921 176.809 111.451C175.01 107.337 173.71 103.056 172.879 98.6385C172.769 98.1139 171.994 98.3348 172.077 98.8594Z" fill="black"/>
<path id="Vector_67" d="M176.67 111.976C182.011 111.12 186.521 107.447 188.541 102.449C188.735 101.952 187.933 101.731 187.739 102.228C185.83 106.978 181.485 110.374 176.449 111.175C175.923 111.258 176.145 112.059 176.67 111.976Z" fill="black"/>
<path id="Vector_68" d="M172.741 99.8254C173.876 99.8814 174.65 99.1079 175.508 98.4451C176.643 97.5615 177.722 96.6226 178.718 95.6285C180.572 93.7783 182.066 91.652 183.035 89.2219C183.228 88.7249 182.426 88.504 182.232 89.001C181.374 91.1549 180.046 93.0603 178.441 94.7172C177.722 95.4904 176.947 96.1808 176.145 96.8711C175.259 97.6167 173.986 99.0527 172.741 98.9974C172.215 98.9698 172.215 99.7982 172.741 99.8254Z" fill="black"/>
<path id="Vector_69" d="M172.796 99.3843C175.148 97.8655 177.334 96.1258 179.382 94.2204C179.769 93.8614 179.188 93.2539 178.801 93.6405C176.809 95.5183 174.678 97.2028 172.381 98.6939C171.911 98.9425 172.354 99.6604 172.796 99.3843Z" fill="black"/>
</g>
<path id="nariz" d="M156.526 59.4262C154.976 66.4678 154.091 73.62 153.897 80.8273C153.897 81.2415 154.45 81.3796 154.672 81.0482C155.751 79.3361 156.83 77.5964 157.909 75.8843C158.186 75.4425 157.467 75.0007 157.19 75.4701C156.111 77.1822 155.032 78.9219 153.952 80.634C154.201 80.7169 154.478 80.7721 154.727 80.8549C154.921 73.7304 155.806 66.6335 157.328 59.6747C157.439 59.1224 156.636 58.9015 156.526 59.4262Z" fill="black"/>
<path id="boca" d="M157.633 91.2103C156.968 89.9677 156.526 88.6422 156.415 87.2338C156.332 86.2397 156.553 82.208 158.435 83.8096C159.431 84.6657 159.293 86.5435 159.32 87.7861C159.32 88.366 159.32 88.9735 159.265 89.5534C159.237 89.9677 159.182 90.3819 159.099 90.7685C158.38 91.2655 157.826 91.2379 157.467 90.7133C157.107 90.3267 156.498 90.9066 156.885 91.2932C158.075 92.5082 159.625 92.5634 159.957 90.658C160.206 89.3049 160.206 87.869 160.095 86.5159C160.012 85.4389 160.012 83.8925 159.21 83.0641C158.02 81.849 156.332 82.9812 155.862 84.2791C155.004 86.5987 155.834 89.5258 156.941 91.6245C157.162 92.094 157.882 91.6798 157.633 91.2103Z" fill="black"/>
<path id="ceja izq" d="M161.728 56.7752C162.779 54.4279 165.491 53.2957 167.982 53.8204C170.555 54.3727 172.52 56.3609 173.793 58.5425C174.069 59.0119 174.789 58.5977 174.512 58.1283C173.045 55.6154 170.721 53.3786 167.733 52.9368C165.048 52.5502 162.171 53.8204 161.008 56.3333C160.787 56.858 161.507 57.2722 161.728 56.7752Z" fill="black"/>
<path id="ceja der" d="M145.513 57.6865C146.26 56.1401 147.56 54.4556 149.47 54.4832C151.296 54.5109 152.624 56.1125 153.537 57.5208C153.814 57.9627 154.533 57.5484 154.257 57.1066C153.205 55.4221 151.628 53.6824 149.47 53.6548C147.256 53.6272 145.706 55.4498 144.821 57.2723C144.572 57.7417 145.291 58.156 145.513 57.6865Z" fill="black"/>
<path id="ojo izq" d="M163.36 66.3573C164.191 70.251 169.31 70.5547 170.832 66.9649C171.025 66.4678 170.223 66.2469 170.029 66.7439C168.784 69.6711 164.799 69.1188 164.163 66.1364C164.052 65.6394 163.25 65.8327 163.36 66.3573Z" fill="black"/>
<path id="ojo der" d="M150.41 70.1958C150.899 70.1958 151.296 68.3784 151.296 66.1365C151.296 63.8946 150.899 62.0772 150.41 62.0772C149.921 62.0772 149.525 63.8946 149.525 66.1365C149.525 68.3784 149.921 70.1958 150.41 70.1958Z" fill="black"/>
</g>
<g id="brazo D">
<path id="brazo der" d="M152.956 113.881C152.873 114.903 152.762 116.311 152.707 117.941C152.458 123.519 152.679 127.744 152.762 128.876C152.984 132.549 153.482 137.354 154.644 142.932C153.537 144.202 151.877 146.08 149.746 148.289C145.706 152.514 143.631 154.668 140.31 156.905C136.602 159.39 134.029 160.163 132.645 160.522C130.902 160.936 129.242 161.323 127.222 160.881C123.929 160.135 121.964 157.705 121.245 156.766C119.419 154.447 119.004 152.182 118.256 147.764C117.703 144.533 117.592 142.076 117.426 137.326C117.343 135.062 117.233 132.3 117.288 128.6C117.343 124.43 117.565 119.487 118.173 113.964C118.45 111.479 118.837 108.414 119.446 104.934C118.976 104.272 118.478 103.609 117.952 102.918C117.399 102.2 116.873 101.51 116.319 100.82C114.908 102.007 113.525 103.222 112.113 104.41C111.754 104.548 111.117 104.769 110.342 104.686C108.876 104.548 108.018 103.526 107.714 103.195C106.358 101.648 106.551 99.688 106.607 99.3014C108.516 97.2303 110.425 95.1868 112.362 93.1157C112.39 91.9283 112.556 90.3819 113.027 88.6698C113.386 87.3996 113.829 86.3502 114.244 85.4666C114.604 84.7486 115.102 83.9478 115.738 83.147C116.873 81.6558 118.09 80.6064 119.087 79.8885C118.284 80.2475 118.09 80.2475 118.035 80.1922C117.897 79.9713 119.197 78.3421 121.024 78.1764C122.047 78.0659 122.85 78.4525 123.403 78.7011C124.261 79.1153 124.842 79.6399 125.202 80.0265C126.917 78.563 128.633 77.0994 130.349 75.6635C130.957 76.0225 131.566 76.4367 132.175 76.8509C133.586 77.8174 134.859 78.7839 135.994 79.7228C135.579 80.2475 135.053 80.8274 134.389 81.4073C133.282 82.3738 132.175 82.9537 131.317 83.3403C131.843 83.5059 132.784 83.8925 133.254 84.8038C133.725 85.6875 133.531 86.654 133.254 87.869C133.06 88.6974 132.811 89.3602 132.618 89.802C132.728 90.9618 132.784 92.5358 132.452 94.3032C131.926 97.2027 130.708 99.3566 129.878 100.599C129.851 101.676 129.823 103.36 129.878 105.431C130.1 113.964 131.345 118.962 132.147 125.258C132.618 128.848 133.088 134.178 132.95 140.888C133.586 140.474 134.499 139.811 135.523 138.955C138.124 136.774 139.785 134.592 141.971 131.389C144.129 128.268 145.54 125.949 147.45 122.856C148.639 120.84 150.549 117.775 152.956 113.881Z" fill="white"/>
<path id="sombra brazo derecho" opacity="0.24" d="M127.803 88.6698C127.222 89.94 126.641 91.2379 126.06 92.5634C124.372 96.5399 122.988 100.35 121.854 103.995C121.605 109.739 121.466 114.544 121.356 118.023C121.217 123.298 121.549 129.594 122.158 142.186C122.407 147.378 122.628 150.526 125.064 152.818C127.609 155.192 131.151 155.248 133.143 155.248C143.769 155.22 151.711 146.19 153.897 143.567C150.936 148.593 147.56 151.879 145.263 153.812C142.662 155.993 139.314 158.727 134.112 160.08C129.712 161.24 127.72 160.991 127.194 160.881C123.403 159.97 121.3 156.822 120.553 155.745C118.754 153.066 118.173 150.277 117.841 144.285C117.509 138.127 117.869 136.497 117.98 128.02C118.063 119.929 117.758 117.637 118.367 112.031C118.727 108.745 119.17 106.039 119.529 104.216C118.45 103.084 117.371 101.952 116.292 100.847C115.379 101.648 114.438 102.421 113.497 103.222C112.888 103.747 112.252 104.271 111.643 104.769C111.09 104.824 110.287 104.796 109.429 104.437C107.216 103.498 105.832 100.764 106.524 99.8264C106.967 99.1908 108.129 99.6879 109.734 99.6879C112.501 99.7155 114.355 98.3072 118.035 95.6562C120.636 93.7508 123.625 91.6245 127.803 88.6698Z" fill="#9B9797"/>
<g id="brazo der separado">
<path id="Vector_70" d="M152.596 113.66C146.204 122.469 141.473 132.576 133.393 140.087C133.005 140.446 133.586 141.026 133.974 140.667C142.109 133.101 146.868 122.939 153.316 114.075C153.648 113.66 152.928 113.246 152.596 113.66Z" fill="black"/>
<path id="Vector_71" d="M128.799 161.516C139.757 160.798 147.616 151.63 154.201 143.843C154.533 143.429 153.952 142.849 153.62 143.263C147.228 150.885 139.48 159.997 128.827 160.715C128.273 160.715 128.273 161.544 128.799 161.516Z" fill="black"/>
<path id="Vector_72" d="M129.546 100.709C128.91 115.262 133.088 129.511 132.424 144.064C132.396 144.588 133.226 144.588 133.254 144.064C133.918 129.511 129.74 115.262 130.376 100.709C130.404 100.184 129.574 100.184 129.546 100.709Z" fill="black"/>
<path id="Vector_73" d="M119.142 104.078C117.565 113.053 116.79 122.166 116.817 131.278C116.845 135.807 117.067 140.363 117.509 144.865C117.869 148.703 118.312 152.735 120.332 156.104C122.158 159.169 125.368 161.488 129.021 161.406C129.546 161.378 129.546 160.55 129.021 160.577C123.901 160.715 120.608 156.159 119.419 151.685C118.09 146.77 117.98 141.413 117.786 136.359C117.371 125.645 118.118 114.875 119.972 104.327C120.027 103.774 119.225 103.553 119.142 104.078Z" fill="black"/>
</g>
<g id="mano der">
<path id="Vector_74" d="M123.597 83.7269C123.652 85.9084 125.091 87.7862 127.194 88.3937C127.72 88.5318 127.941 87.731 127.416 87.5929C125.672 87.0958 124.482 85.5218 124.427 83.7269C124.399 83.2022 123.569 83.2022 123.597 83.7269Z" fill="black"/>
<path id="Vector_75" d="M124.455 83.4783C124.731 81.0759 129.02 82.8156 130.183 83.4231C131.317 84.003 132.452 84.5829 132.701 85.9636C132.894 87.013 132.562 88.1175 132.286 89.1393C132.147 89.6639 132.95 89.8849 133.088 89.3602C133.476 87.9795 133.891 86.4054 133.31 85.0523C132.756 83.6716 131.234 83.0365 129.989 82.429C128.716 81.8215 127.333 81.3796 125.894 81.5453C125.313 81.6282 124.565 81.7662 124.095 82.1528C123.597 82.5394 123.708 82.8156 123.625 83.5059C123.569 84.003 124.399 84.003 124.455 83.4783Z" fill="black"/>
<path id="Vector_76" d="M132.009 88.9736C131.926 91.0723 132.396 93.1157 131.898 95.2144C131.428 97.1474 130.487 98.9423 129.546 100.682C129.297 101.151 130.017 101.565 130.266 101.096C131.234 99.2737 132.203 97.4235 132.701 95.4353C133.227 93.2814 132.756 91.1551 132.839 88.9736C132.867 88.4213 132.037 88.4213 132.009 88.9736Z" fill="black"/>
<path id="Vector_77" d="M115.96 101.013C116.79 102.173 117.675 103.277 118.671 104.299C119.031 104.686 119.612 104.106 119.253 103.719C118.312 102.725 117.454 101.703 116.679 100.599C116.347 100.157 115.628 100.571 115.96 101.013Z" fill="black"/>
<path id="Vector_78" d="M112.75 93.2261C112.944 91.9006 113.137 90.5752 113.331 89.2497C113.469 88.2555 113.58 87.151 114.133 86.2673C115.406 84.2239 117.205 85.6874 118.173 87.0681C118.588 87.648 118.976 88.2832 119.391 88.8631C119.612 89.1944 120.691 90.3819 120.553 90.7961C120.691 90.6856 120.83 90.6028 120.941 90.4923C120.885 90.4923 120.858 90.4923 120.802 90.4923C120.276 90.4647 120.276 91.2931 120.802 91.3207C120.858 91.3207 120.885 91.3207 120.941 91.3207C121.134 91.3207 121.3 91.1827 121.328 91.017C121.522 90.3266 121.051 89.9124 120.691 89.3601C120 88.3384 119.336 87.289 118.616 86.2949C117.869 85.2732 116.901 84.2791 115.517 84.4171C114.189 84.5552 113.386 85.577 112.971 86.7644C112.279 88.725 112.224 90.9618 111.92 93.0052C111.864 93.5299 112.667 93.7508 112.75 93.2261Z" fill="black"/>
<path id="Vector_79" d="M114.05 90.1058C114.798 91.5694 116.043 93.0606 117.814 93.171C119.28 93.2815 120.664 92.453 121.051 91.0171C121.19 90.4924 120.387 90.2715 120.249 90.7962C119.889 92.1217 118.422 92.6187 117.205 92.2045C116.043 91.7903 115.296 90.7686 114.77 89.7192C114.521 89.2221 113.801 89.6364 114.05 90.1058Z" fill="black"/>
<path id="Vector_80" d="M115.074 84.721C115.213 83.3679 116.762 83.0089 117.814 83.3679C118.921 83.7269 119.778 84.721 120.553 85.5218C121.162 86.157 122.352 87.0406 122.518 87.9243C122.739 89.1117 121.245 89.9125 120.249 90.2163C119.751 90.3543 119.944 91.1552 120.47 91.0171C121.688 90.6581 123.459 89.5811 123.652 88.1452C123.735 87.5653 123.376 87.2615 122.988 86.8473C122.213 86.0189 121.466 85.2181 120.664 84.4173C119.585 83.3127 118.201 82.1253 116.541 82.4014C115.296 82.5947 114.382 83.4231 114.244 84.6934C114.189 85.2457 115.019 85.2457 115.074 84.721Z" fill="black"/>
<path id="Vector_81" d="M116.568 82.6775C116.956 82.2357 117.15 81.6558 117.509 81.214C118.395 80.1094 119.778 81.1311 120.691 81.7939C122.462 83.0365 124.344 85.3009 122.739 87.4548C122.435 87.8966 123.154 88.3108 123.459 87.869C125.174 85.5494 123.486 82.8708 121.522 81.3796C120.608 80.6893 119.225 79.4466 117.98 79.8056C116.873 80.1094 116.679 81.3796 115.987 82.1252C115.628 82.4842 116.209 83.0641 116.568 82.6775Z" fill="black"/>
<path id="Vector_82" d="M119.363 80.1645C120.332 78.9771 121.605 77.7345 123.099 78.9771C124.095 79.7779 124.731 80.9101 125.091 82.0975C125.257 82.5946 126.032 82.4013 125.894 81.8766C125.423 80.275 124.344 78.4248 122.739 77.7621C121.107 77.0993 119.751 78.3972 118.782 79.5846C118.45 79.9712 119.031 80.5787 119.363 80.1645Z" fill="black"/>
</g>
</g>
<g id="lupa">
<path id="Vector_83" d="M113.912 91.6797C111.311 93.8613 108.793 96.1532 106.413 98.5557C106.026 98.9423 106.634 99.5222 106.994 99.1356C109.402 96.7332 111.892 94.4411 114.493 92.2596C114.908 91.9282 114.327 91.3483 113.912 91.6797Z" fill="black"/>
<path id="Vector_84" d="M106.164 99.3013C105.749 102.504 108.184 105.21 111.422 105.183C111.947 105.183 111.947 104.354 111.422 104.354C108.627 104.382 106.634 102.035 106.994 99.3013C107.077 98.7766 106.247 98.7766 106.164 99.3013Z" fill="black"/>
<path id="Vector_85" d="M106.939 99.1081C109.844 99.1909 111.864 101.786 111.256 104.603C111.145 105.128 111.947 105.349 112.058 104.824C112.805 101.427 110.425 98.3901 106.939 98.2796C106.413 98.2796 106.413 99.1081 106.939 99.1081Z" fill="black"/>
<path id="Vector_86" d="M112.39 104.686C115.545 101.814 118.754 98.9699 121.826 96.0152C123.237 94.6621 124.593 93.2814 125.866 91.7902C126.558 90.9894 128.301 89.4154 128.329 88.3108C128.329 88.1727 128.246 88.007 128.135 87.9518C128.08 87.9242 128.024 87.8966 127.997 87.8966C127.831 87.8137 127.609 87.8137 127.499 87.9518C127.471 87.9794 127.443 88.007 127.416 88.0623C127.084 88.4765 127.665 89.0564 127.997 88.6422C128.024 88.6146 128.052 88.5869 128.08 88.5317C127.914 88.5593 127.748 88.5869 127.582 88.5869C127.526 88.3384 127.443 88.3384 127.333 88.6146C127.194 88.8079 127.056 89.0012 126.89 89.1945C126.558 89.6087 126.253 90.0229 125.894 90.4371C125.34 91.1275 124.731 91.7902 124.15 92.453C122.933 93.7784 121.66 95.0211 120.359 96.2361C117.537 98.8871 114.659 101.455 111.809 104.078C111.394 104.465 112.003 105.045 112.39 104.686Z" fill="black"/>
<path id="Vector_87" d="M125.479 80.275C127.194 78.8114 128.91 77.3479 130.625 75.9119C131.04 75.553 130.432 74.973 130.044 75.332C128.329 76.7956 126.613 78.2592 124.897 79.6951C124.482 80.0541 125.091 80.634 125.479 80.275Z" fill="black"/>
<path id="Vector_88" d="M131.594 83.8096C133.227 82.6222 134.804 81.352 136.27 79.9713C136.658 79.6123 136.077 79.0324 135.689 79.3914C134.25 80.7168 132.756 81.9595 131.179 83.0917C130.736 83.3954 131.151 84.1134 131.594 83.8096Z" fill="black"/>
<path id="Vector_89" d="M144.018 81.7386C153.249 81.7386 160.732 74.2711 160.732 65.0595C160.732 55.8479 153.249 48.3805 144.018 48.3805C134.788 48.3805 127.305 55.8479 127.305 65.0595C127.305 74.2711 134.788 81.7386 144.018 81.7386Z" stroke="black" stroke-width="3" stroke-miterlimit="10"/>
<path id="Vector_90" d="M133.891 67.103C140.034 63.1817 146.315 59.4814 152.735 56.002C153.205 55.7535 152.79 55.0355 152.32 55.284C145.9 58.7358 139.619 62.4362 133.476 66.385C133.033 66.6888 133.448 67.4067 133.891 67.103Z" fill="black"/>
<path id="Vector_91" d="M134.582 74.3379C139.646 70.6376 144.765 67.0754 149.995 63.596C150.438 63.2922 150.023 62.5742 149.58 62.878C144.378 66.3574 139.231 69.9473 134.167 73.62C133.725 73.9237 134.14 74.6417 134.582 74.3379Z" fill="black"/>
</g>
</g>
</g>
</g>
<defs>
<clipPath id="clip0_1_2">
<rect width="336" height="304" fill="white"/>
</clipPath>
</defs>
</svg>
